<?xml version="1.0" encoding="utf-8"?>
<!-- Generator: Adobe Illustrator 27.5.0, SVG Export Plug-In . SVG Version: 6.00 Build 0)  -->
<svg version="1.1" xmlns="http://www.w3.org/2000/svg" xmlns:xlink="http://www.w3.org/1999/xlink" x="0px" y="0px"
	 viewBox="0 0 500 500" style="enable-background:new 0 0 500 500;" xml:space="preserve">
<g id="BACKGROUND">
</g>
<g id="OBJECTS">
	<path style="fill:#F6F6FF;" d="M226.184,419.546c0,0-121.814-6.352-178.52-59.357s74.631-108.883,29.44-163.903
		S47.527,52.62,178.123,81.85c130.597,29.231,150.972-30.713,201.251,9.009c49.861,39.392-23.572,105.028,4.554,148.075
		c28.126,43.047,96.384,47.817,82.733,119.99C453.01,431.098,307.043,427.947,226.184,419.546z"/>
	<g>
		<g>
			<path style="fill:#BFB7FB;" d="M400.391,139.266h-219.34v305.098h219.34V139.266L400.391,139.266z"/>
			<path style="fill:#FFFFFF;" d="M192.314,419.484V164.145c0-6.251,5.067-11.318,11.318-11.318h174.179
				c6.251,0,11.318,5.067,11.318,11.318v255.339c0,6.251-5.067,11.318-11.318,11.318H203.632
				C197.381,430.802,192.314,425.735,192.314,419.484z"/>
		</g>
		<g>
			<polygon style="fill:#8476E3;" points="346.524,167.479 234.918,167.479 236.814,139.143 344.628,139.143 			"/>
			<g>
				<path style="fill:#8476E3;" d="M303.295,122.425h-25.149l-1.895,16.718h28.94L303.295,122.425z M290.721,135.299
					c-2.493,0-4.515-2.021-4.515-4.515c0-2.493,2.021-4.515,4.515-4.515c2.493,0,4.515,2.021,4.515,4.515
					C295.236,133.278,293.214,135.299,290.721,135.299z"/>
			</g>
		</g>
		<g>
			
				<rect x="214.169" y="196.229" style="fill:none;stroke:#8476E3;stroke-width:1.8954;stroke-miterlimit:10;" width="25.543" height="25.543"/>
			<g>
				<path style="fill:#8476E3;" d="M365.971,198.607H247.316c-0.719,0-1.302-0.583-1.302-1.302l0,0c0-0.719,0.583-1.302,1.302-1.302
					h118.655c0.719,0,1.302,0.583,1.302,1.302l0,0C367.273,198.024,366.69,198.607,365.971,198.607z"/>
				<path style="fill:#8476E3;" d="M365.971,210.303H247.316c-0.719,0-1.302-0.583-1.302-1.302l0,0c0-0.719,0.583-1.302,1.302-1.302
					h118.655c0.719,0,1.302,0.583,1.302,1.302l0,0C367.273,209.72,366.69,210.303,365.971,210.303z"/>
				<path style="fill:#8476E3;" d="M365.971,221.999H247.316c-0.719,0-1.302-0.583-1.302-1.302l0,0c0-0.719,0.583-1.302,1.302-1.302
					h118.655c0.719,0,1.302,0.583,1.302,1.302l0,0C367.273,221.416,366.69,221.999,365.971,221.999z"/>
			</g>
			<g>
				<path style="fill:#8476E3;" d="M365.971,291.237H247.316c-0.719,0-1.302-0.583-1.302-1.302l0,0c0-0.719,0.583-1.302,1.302-1.302
					h118.655c0.719,0,1.302,0.583,1.302,1.302l0,0C367.273,290.654,366.69,291.237,365.971,291.237z"/>
				<path style="fill:#8476E3;" d="M365.971,302.933H247.316c-0.719,0-1.302-0.583-1.302-1.302l0,0c0-0.719,0.583-1.302,1.302-1.302
					h118.655c0.719,0,1.302,0.583,1.302,1.302l0,0C367.273,302.35,366.69,302.933,365.971,302.933z"/>
				<path style="fill:#8476E3;" d="M365.971,314.629H247.316c-0.719,0-1.302-0.583-1.302-1.302l0,0c0-0.719,0.583-1.302,1.302-1.302
					h118.655c0.719,0,1.302,0.583,1.302,1.302l0,0C367.273,314.046,366.69,314.629,365.971,314.629z"/>
			</g>
			<g>
				<path style="fill:#8476E3;" d="M365.971,337.553H247.316c-0.719,0-1.302-0.583-1.302-1.302l0,0c0-0.719,0.583-1.302,1.302-1.302
					h118.655c0.719,0,1.302,0.583,1.302,1.302l0,0C367.273,336.97,366.69,337.553,365.971,337.553z"/>
				<path style="fill:#8476E3;" d="M365.971,349.249H247.316c-0.719,0-1.302-0.583-1.302-1.302l0,0c0-0.719,0.583-1.302,1.302-1.302
					h118.655c0.719,0,1.302,0.583,1.302,1.302l0,0C367.273,348.666,366.69,349.249,365.971,349.249z"/>
				<path style="fill:#8476E3;" d="M365.971,360.944H247.316c-0.719,0-1.302-0.583-1.302-1.302l0,0c0-0.719,0.583-1.302,1.302-1.302
					h118.655c0.719,0,1.302,0.583,1.302,1.302l0,0C367.273,360.361,366.69,360.944,365.971,360.944z"/>
			</g>
			<g>
				<path style="fill:#8476E3;" d="M365.971,383.868H247.316c-0.719,0-1.302-0.583-1.302-1.302l0,0c0-0.719,0.583-1.302,1.302-1.302
					h118.655c0.719,0,1.302,0.583,1.302,1.302l0,0C367.273,383.285,366.69,383.868,365.971,383.868z"/>
				<path style="fill:#8476E3;" d="M365.971,395.564H247.316c-0.719,0-1.302-0.583-1.302-1.302l0,0c0-0.719,0.583-1.302,1.302-1.302
					h118.655c0.719,0,1.302,0.583,1.302,1.302l0,0C367.273,394.981,366.69,395.564,365.971,395.564z"/>
				<path style="fill:#8476E3;" d="M365.971,407.26H247.316c-0.719,0-1.302-0.583-1.302-1.302l0,0c0-0.719,0.583-1.302,1.302-1.302
					h118.655c0.719,0,1.302,0.583,1.302,1.302l0,0C367.273,406.677,366.69,407.26,365.971,407.26z"/>
			</g>
			<g>
				<path style="fill:#8476E3;" d="M365.971,244.922H247.316c-0.719,0-1.302-0.583-1.302-1.302l0,0c0-0.719,0.583-1.302,1.302-1.302
					h118.655c0.719,0,1.302,0.583,1.302,1.302l0,0C367.273,244.339,366.69,244.922,365.971,244.922z"/>
				<path style="fill:#8476E3;" d="M365.971,256.618H247.316c-0.719,0-1.302-0.583-1.302-1.302l0,0c0-0.719,0.583-1.302,1.302-1.302
					h118.655c0.719,0,1.302,0.583,1.302,1.302l0,0C367.273,256.035,366.69,256.618,365.971,256.618z"/>
				<path style="fill:#8476E3;" d="M365.971,268.314H247.316c-0.719,0-1.302-0.583-1.302-1.302l0,0c0-0.719,0.583-1.302,1.302-1.302
					h118.655c0.719,0,1.302,0.583,1.302,1.302l0,0C367.273,267.731,366.69,268.314,365.971,268.314z"/>
			</g>
			
				<rect x="214.169" y="242.544" style="fill:none;stroke:#8476E3;stroke-width:1.8954;stroke-miterlimit:10;" width="25.543" height="25.543"/>
			
				<rect x="214.169" y="288.859" style="fill:none;stroke:#8476E3;stroke-width:1.8954;stroke-miterlimit:10;" width="25.543" height="25.543"/>
			
				<rect x="214.169" y="381.49" style="fill:none;stroke:#8476E3;stroke-width:1.8954;stroke-miterlimit:10;" width="25.543" height="25.543"/>
			
				<rect x="214.169" y="335.175" style="fill:none;stroke:#8476E3;stroke-width:1.8954;stroke-miterlimit:10;" width="25.543" height="25.543"/>
			
				<polyline style="fill:none;stroke:#3E3577;stroke-width:3.7909;stroke-linecap:round;stroke-linejoin:round;stroke-miterlimit:10;" points="
				220.154,206.976 225.917,213.167 239.712,190.897 			"/>
		</g>
	</g>
	<g>
		<path style="fill:#E593A6;" d="M440.264,331.185c0,0-1.547-0.983-3.836-0.322c0.687,3.636,0.858,4.494,0.858,4.494l3.106-1.026
			L440.264,331.185z"/>
		<g>
			<path style="fill:#E593A6;" d="M437.3,331.693l-29.598-0.83c-3.337,10.152-7.378,27.503-8.443,36.671
				c-1.065,9.168-1.187,26.707,2.355,39.596l10.058,31.104h7.318l-3.81-26.19c-2.171-14.929-0.783-30.16,4.052-44.451l3.901-11.529
				l9.254,82.17h5.915C440.493,419.77,446.023,363.949,437.3,331.693z"/>
			<path style="fill:#3E3577;" d="M402.714,444.364h17.168l-0.892-6.13h-7.318C411.672,438.234,402.714,438.11,402.714,444.364z"/>
			<path style="fill:#3E3577;" d="M426.459,444.364c1.358,0,0.63,0,1.678,0h5.157h4.724l0.285-6.13h-5.915
				C429.187,438.201,426.459,440.978,426.459,444.364z"/>
		</g>
		<path style="fill:#E593A6;" d="M411.956,259.335v14.758c0,0,0.124,5.596,7.76,5.596c8.825,0,8.064-8.487,8.064-8.487
			s3.804-0.152,3.804-3.347c0-3.195-3.804-2.739-3.804-2.739v-5.782H411.956z"/>
		<path style="fill:#8476E3;" d="M427.414,283.061c-6.642-3.02-14.287-0.532-19.932,3.468c-5.105,3.617-10.757,12.515-17.812,7.473
			c-4.771-3.409-6.016-7.34-8.166-12.787l-3.462,0.782c0,0,0.657,6.291,5.32,14.523c5.063,8.938,15.076,12.297,23.814,8.264
			c0.473-0.218,0.942-0.456,1.409-0.716l-1.126,34.156l29.608-0.009C436.939,322.325,444.25,290.716,427.414,283.061z"/>
		<path style="fill:#8476E3;" d="M424.406,281.997c0,0,19.149,2.252,26.716,24.955c5.165,18.859-10.73,27.38-10.73,27.38
			l-0.128-3.146c0,0,10.604-14.264-2.73-26.035"/>
		<path style="fill:#3E3577;" d="M411.956,264.546c0,0-3.057-1.37-3.666-3.843c-0.84-3.411,3.348-10.994,15.176-10.055
			c11.828,0.939,17.85,9.797,17.724,22.681c-0.125,12.884,6.988,12.347,9.403,22.815c2.416,10.468-5.522,18.252-21.885,17.179
			c-16.364-1.074-19.048-14.226-15.693-22.144C416.371,283.261,421.77,267.499,411.956,264.546z"/>
		<path style="fill:#3E3577;" d="M407.703,330.863"/>
		<path style="fill:#EFC5BC;" d="M437.3,331.693c-9.583,1.041-19.465,0.69-29.598-0.83c0,0-11.974,19.457-11.974,56.751
			c16.228,5.346,45.891,3.076,51.837,0C447.565,387.614,445.503,352.856,437.3,331.693z"/>
		<path style="fill:#E593A6;" d="M381.505,281.215c0,0,1.337-5.879-0.71-6.444c-0.706-3.176-1.271-3.953-1.906-3.741
			c-0.635,0.212,0,3.6,0,3.6s-2.79,1.114-3.355,2.602c-0.565,1.488,2.508,4.765,2.508,4.765L381.505,281.215z"/>
		<path style="fill:#3E3577;" d="M414.697,268.865c-0.062,0.748-0.488,1.323-0.953,1.285c-0.465-0.038-0.791-0.676-0.729-1.424
			c0.062-0.748,0.488-1.323,0.953-1.285C414.432,267.479,414.759,268.117,414.697,268.865z"/>
		<path style="fill:#DB7E98;" d="M411.956,268.185c0,0-3.79,4.929,0,4.945"/>
		<path style="fill:#FFFFFF;" d="M412.957,274.675l2.733-0.619c0,0-0.258,1.702-2.088,2.217
			C413.602,276.273,412.983,275.474,412.957,274.675z"/>
	</g>
	<g>
		<path style="fill:#8476E3;" d="M111.458,438.11c0,0-9.756,0.084-9.756,6.254c11.465,0,17.168,0,17.168,0l0.567-6.254H111.458z"/>
		<path style="fill:#8476E3;" d="M149.951,438.11c0,0,9.755,0.084,9.755,6.254c-11.465,0-16.7,0-16.7,0l0.442-6.254H149.951z"/>
		<path style="fill:#3E3577;" d="M124.996,276.385c0,0-7.754-3.421-8.97-10.947c-1.216-7.526,3.953-13.228,12.619-14.9
			c8.666-1.673,11.238,3.27,7.634,5.892C132.674,259.052,124.996,276.385,124.996,276.385z"/>
		<path style="fill:#DB7E98;" d="M124.001,283.452l-1.537-13.241l9.9-1.149l1.429,12.314
			C130.638,282.271,127.374,282.963,124.001,283.452z"/>
		<path style="fill:#E593A6;" d="M136.279,256.431c0.225-0.02,1.563,10.821,1.676,11.677c0.229,1.739,0.8,3.676,0.12,5.356
			c-1.071,2.65-3.798,3.844-6.472,4.243c-8.728,1.301-9.227-7.206-9.227-7.206s-3.785,0.41-4.255-2.75
			c-0.471-3.16,3.358-3.269,3.358-3.269l-0.852-5.719L136.279,256.431z"/>
		<g>
			<path style="fill:#EEC161;" d="M189.503,234.806L46.713,270.23c-6.547,1.624-13.172-2.367-14.796-8.914v0
				c-1.624-6.547,2.367-13.172,8.914-14.796l142.791-35.425L189.503,234.806z"/>
			<path style="fill:#E2809B;" d="M52.185,268.873l-5.472,1.358c-6.547,1.624-13.172-2.367-14.796-8.914v0
				c-1.624-6.547,2.367-13.172,8.914-14.796l5.472-1.358L52.185,268.873z"/>
			
				<rect x="49.126" y="243.836" transform="matrix(0.9706 -0.2408 0.2408 0.9706 -60.0907 20.3298)" style="fill:#ECE9FC;" width="8.034" height="24.429"/>
			<g>
				<polygon style="fill:#EFC5BC;" points="183.621,211.096 189.503,234.805 210.109,221.482 208.065,213.243 				"/>
				<polygon style="fill:#3E3577;" points="208.065,213.243 210.109,221.482 221.083,214.386 				"/>
			</g>
		</g>
		<path style="fill:#E593A6;" d="M71.864,266.845c0,0,0.305-5.955-0.625-6.325c-0.887-0.2-1.046,3.815-1.046,3.815l-8.252,2.137
			c0,0,0.978,1.616,4.188,1.616"/>
		<path style="fill:#3E3577;" d="M128.547,265.654c0.11,0.743-0.175,1.4-0.636,1.468c-0.461,0.068-0.924-0.478-1.034-1.221
			c-0.11-0.743,0.175-1.4,0.636-1.468C127.975,264.365,128.438,264.911,128.547,265.654z"/>
		<path style="fill:#3E3577;" d="M135.627,264.607c0.11,0.743-0.175,1.4-0.636,1.468c-0.461,0.068-0.924-0.479-1.033-1.221
			c-0.11-0.742,0.175-1.4,0.636-1.468C135.054,263.318,135.517,263.865,135.627,264.607z"/>
		<path style="fill:#FFFFFF;" d="M128.749,270.906l6.706-1.037c0,0,0.227,2.308-2.724,2.762
			C129.511,273.126,128.749,270.906,128.749,270.906z"/>
		<path style="fill:#DB7E98;" d="M131.013,264.238c0,0,4.407,4.064,0.694,4.825"/>
		<path style="fill:#DB7E98;" d="M121.562,266.076c0,0-2.351,0.19-1.9,1.901c0.451,1.712,2.433,1.086,2.433,1.086L121.562,266.076z"
			/>
		<g>
			<g>
				<g>
					<path style="fill:#3E3577;" d="M152.735,329.516C152.813,330.152,152.713,328.855,152.735,329.516L152.735,329.516z"/>
					<path style="fill:#3E3577;" d="M152.735,329.516h-38.874l-1.107,108.594h6.683l14.553-82.546l9.459,82.546h6.503
						C149.951,438.11,153.971,366.296,152.735,329.516z"/>
				</g>
				<path style="fill:#8476E3;" d="M174.722,241.306c-4.699,0.427-4.699,0.427-4.699,0.427s3.438,26.36-34.064,38.966
					c0,0-39.26,14.127-64.157-13.921l-5.674,1.309c0,0,14.945,27.759,48.035,31.856l-0.302,29.572
					c13.011,2.147,25.969,2.165,38.874,0c0.462-12.81-0.981-37.133-0.981-37.133S180.864,278.895,174.722,241.306z"/>
			</g>
			<g>
				<g>
					<path style="fill:#BFB7FB;" d="M135.001,331.133h-0.474c0-22.973-3.742-48.668-3.78-48.963l0.499-0.122
						C131.284,282.341,135.001,308.131,135.001,331.133z"/>
				</g>
			</g>
			<g>
				<path style="fill:#BFB7FB;" d="M114.163,299.944l-0.48-0.061c0.015-0.085,1.32-8.725,0.558-15.635l0.468-0.009
					C115.48,291.215,114.177,299.857,114.163,299.944z"/>
			</g>
			<g>
				<path style="fill:#BFB7FB;" d="M151.754,292.383c-0.034-0.117-3.774-11.536-7.407-15.023l0.438-0.207
					c3.723,3.573,7.257,14.542,7.398,15.016L151.754,292.383z"/>
			</g>
			<circle style="fill:#BFB7FB;" cx="129.728" cy="284.243" r="0.573"/>
			<circle style="fill:#BFB7FB;" cx="130.301" cy="293.144" r="0.573"/>
			<circle style="fill:#BFB7FB;" cx="131.337" cy="302.046" r="0.573"/>
			<circle style="fill:#BFB7FB;" cx="131.91" cy="310.947" r="0.573"/>
			<circle style="fill:#BFB7FB;" cx="132.576" cy="319.848" r="0.573"/>
			<circle style="fill:#BFB7FB;" cx="133.149" cy="328.75" r="0.573"/>
		</g>
		<path style="fill:#E593A6;" d="M170.032,241.747c0,0-0.292-5.698,0.598-6.051c0.849-0.192,0.996,3.545,0.996,3.545l5.764-1.43
			c0,0,0.027,1.781-2.668,3.496"/>
	</g>
	<g>
		<path style="fill:#DB7E98;" d="M336.495,73.148c-5.606-0.701-13.16,3.87-7.904,25.594c5.256,21.724,32.318,22.473,32.318,22.473
			l1.75-4.877C327.857,108.371,342.101,73.849,336.495,73.148z"/>
		<path style="fill:#3E3577;" d="M377.205,180.123c0,0,9.755,0.084,9.755,6.254h-17.168l0.526-6.254H377.205z"/>
		<path style="fill:#E1ABA4;" d="M331.033,115.969l19.03,28.252c23.179,0,20.256,35.901,20.256,35.901h8.306
			c0,0,2.469-17.945-1.346-32.077C369.917,120.776,331.033,115.969,331.033,115.969z"/>
		<path style="fill:#8476E3;" d="M325.652,61.283c0,0-6.703-3.519-7.658-11.753c-0.954-8.234,4.566-13.407,11.785-14.78
			c7.219-1.372,17.998,5.152,12.434,11.056"/>
		<g>
			<path style="fill:#DB7E98;" d="M332.952,110.93l-27.734-2.982c-0.06,1.508,0,3.464,0,5.071l27.938-0.236
				C332.995,112.171,332.918,111.553,332.952,110.93z"/>
			<path style="fill:#EFC5BC;" d="M344.978,123.722c-4.644-2.415-10.641-6.462-11.822-10.94l-27.938,0.236
				c0,34.993,14.189,31.203,35.723,31.203c19.291,0,9.578,36.798,9.578,36.798h8.366
				C358.885,181.02,376.382,134.615,344.978,123.722z"/>
		</g>
		<path style="fill:#3E3577;" d="M342.126,81.453c-1.134-5.92-5.473-15.082-9.992-16.145c-7.097-1.67-13.429,0.104-18.343,4.223
			c-5.018,4.206-7.724,10.555-7.897,17.101c-0.148,5.601-0.392,14.118-0.676,21.316l27.734,2.982
			C333.607,98.895,344.24,92.483,342.126,81.453z"/>
		<polygon style="fill:#3E3577;" points="349.029,103.176 345.298,120.432 326.376,121.431 326.376,122.848 343.189,131.767 
			376.379,128.072 376.448,126.744 383.581,101.693 		"/>
		<path style="fill:#E593A6;" d="M319.975,69.971c-6.044-0.755-16.997,4.533-11.332,27.951c5.666,23.419,36.33,24.098,36.33,24.098
			l1.083-5.16C308.538,108.272,326.018,70.726,319.975,69.971z"/>
		<path style="fill:#DB7E98;" d="M329.192,69.873L329.192,69.873c-2.918-0.32-5.024-2.944-4.705-5.862l0.926-8.454l10.236,1.121
			l-0.962,8.786C334.387,68.198,331.927,70.172,329.192,69.873z"/>
		<path style="fill:#3E3577;" d="M357.548,180.756c0,0,9.537,2.056,8.288,8.098l-16.813-3.473l1.887-5.996L357.548,180.756z"/>
		<path style="fill:#E593A6;" d="M342.435,43.779l-1.607,14.671c0,0-0.732,5.549-8.323,4.718c-8.772-0.961-7.092-9.314-7.092-9.314
			s-3.765-0.565-3.417-3.742c0.348-3.176,4.079-2.308,4.079-2.308l0.629-5.747L342.435,43.779z"/>
		<polygon style="fill:#8476E3;" points="326.407,39.649 325.874,47.766 327.346,51.151 329.318,39.902 		"/>
		<path style="fill:#3E3577;" d="M333.001,51.783c-0.085,0.746-0.53,1.307-0.993,1.255c-0.463-0.053-0.769-0.7-0.684-1.446
			c0.085-0.746,0.53-1.307,0.993-1.255C332.78,50.39,333.086,51.037,333.001,51.783z"/>
		<path style="fill:#3E3577;" d="M340.111,52.595c-0.085,0.746-0.53,1.307-0.993,1.254c-0.463-0.053-0.769-0.7-0.684-1.446
			c0.085-0.746,0.53-1.307,0.993-1.254C339.89,51.202,340.196,51.849,340.111,52.595z"/>
		<path style="fill:#DB7E98;" d="M335.748,51.687c0,0,3.212,5.062-0.572,4.841"/>
		<path style="fill:#DB7E98;" d="M326.142,49.38c0,0-2.32-0.422-2.326,1.348c-0.006,1.77,2.071,1.676,2.071,1.676L326.142,49.38z"/>
		<path style="fill:none;stroke:#3E3577;stroke-width:0.4427;stroke-miterlimit:10;" d="M332.148,57.413
			c0,0,2.303,2.181,5.717,0.626"/>
	</g>
</g>
</svg>
